<svg width="33" height="30" viewBox="0 0 33 30" fill="none" xmlns="http://www.w3.org/2000/svg">
<path id="Vector" d="M8.90002 1.5C4.75002 1.5 1.40002 4.89187 1.40002 9.09375C1.40002 10.6631 1.86669 12.1144 2.66669 13.3125C4.01669 15.3544 16.4 28.5 16.4 28.5C16.4 28.5 28.7834 15.3544 30.1334 13.3125C30.9334 12.1144 31.4 10.6631 31.4 9.09375C31.4 4.89187 28.05 1.5 23.9 1.5C21.3 1.5 19.1334 2.9175 17.6667 4.875C16.4 6.5625 16.4 6.5625 16.4 6.5625C16.4 6.5625 16.4 6.5625 15.1334 4.875M8.90002 1.5C11.5 1.5 13.6834 2.9175 15.1334 4.875M8.90002 1.5C11.5 1.5 13.6667 2.9175 15.1334 4.875" stroke="#CC4853" stroke-width="2" stroke-linecap="round"/>
</svg>
