<svg width="26" height="26" viewBox="0 0 26 26" fill="none" xmlns="http://www.w3.org/2000/svg">
<path id="Vector" d="M9.38889 26H23.1111C23.8773 26 24.6121 25.6956 25.1539 25.1539C25.6956 24.6121 26 23.8773 26 23.1111V21.6667C26 20.9005 25.6956 20.1657 25.1539 19.6239C24.6121 19.0821 23.8773 18.7778 23.1111 18.7778H9.38889V26ZM9.38889 16.6111H23.1111C23.8773 16.6111 24.6121 16.3067 25.1539 15.765C25.6956 15.2232 26 14.4884 26 13.7222V12.2778C26 11.5116 25.6956 10.7768 25.1539 10.235C24.6121 9.69325 23.8773 9.38889 23.1111 9.38889H9.38889V16.6111ZM7.22222 9.38889V16.6111H2.88889C2.12271 16.6111 1.38791 16.3067 0.846136 15.765C0.304364 15.2232 0 14.4884 0 13.7222V12.2778C0 11.5116 0.304364 10.7768 0.846136 10.235C1.38791 9.69325 2.12271 9.38889 2.88889 9.38889H7.22222ZM9.38889 7.22222H23.1111C23.8773 7.22222 24.6121 6.91786 25.1539 6.37609C25.6956 5.83431 26 5.09951 26 4.33333V2.88889C26 2.12271 25.6956 1.38791 25.1539 0.846136C24.6121 0.304364 23.8773 0 23.1111 0H9.38889V7.22222ZM7.22222 0V7.22222H2.88889C2.12271 7.22222 1.38791 6.91786 0.846136 6.37609C0.304364 5.83431 0 5.09951 0 4.33333V2.88889C0 2.12271 0.304364 1.38791 0.846136 0.846136C1.38791 0.304364 2.12271 0 2.88889 0H7.22222ZM7.22222 18.7778V26H2.88889C2.12271 26 1.38791 25.6956 0.846136 25.1539C0.304364 24.6121 0 23.8773 0 23.1111V21.6667C0 20.9005 0.304364 20.1657 0.846136 19.6239C1.38791 19.0821 2.12271 18.7778 2.88889 18.7778H7.22222Z" fill="#B55136"/>
</svg>
