<svg width="23" height="28" viewBox="0 0 23 28" fill="none" xmlns="http://www.w3.org/2000/svg">
<g id="Trash">
<path id="Vector" d="M1.64286 24.9688C1.64286 25.6401 1.90249 26.2839 2.36463 26.7586C2.82677 27.2333 3.45357 27.5 4.10714 27.5H18.8929C19.5464 27.5 20.1732 27.2333 20.6354 26.7586C21.0975 26.2839 21.3571 25.6401 21.3571 24.9688V7.25001H1.64286V24.9688ZM15.6071 11.4688C15.6071 11.245 15.6937 11.0304 15.8477 10.8721C16.0018 10.7139 16.2107 10.625 16.4286 10.625C16.6464 10.625 16.8554 10.7139 17.0094 10.8721C17.1635 11.0304 17.25 11.245 17.25 11.4688V23.2813C17.25 23.505 17.1635 23.7196 17.0094 23.8779C16.8554 24.0361 16.6464 24.125 16.4286 24.125C16.2107 24.125 16.0018 24.0361 15.8477 23.8779C15.6937 23.7196 15.6071 23.505 15.6071 23.2813V11.4688ZM10.6786 11.4688C10.6786 11.245 10.7651 11.0304 10.9192 10.8721C11.0732 10.7139 11.2821 10.625 11.5 10.625C11.7179 10.625 11.9268 10.7139 12.0808 10.8721C12.2349 11.0304 12.3214 11.245 12.3214 11.4688V23.2813C12.3214 23.505 12.2349 23.7196 12.0808 23.8779C11.9268 24.0361 11.7179 24.125 11.5 24.125C11.2821 24.125 11.0732 24.0361 10.9192 23.8779C10.7651 23.7196 10.6786 23.505 10.6786 23.2813V11.4688ZM5.75 11.4688C5.75 11.245 5.83654 11.0304 5.99059 10.8721C6.14464 10.7139 6.35357 10.625 6.57143 10.625C6.78929 10.625 6.99822 10.7139 7.15227 10.8721C7.30631 11.0304 7.39286 11.245 7.39286 11.4688V23.2813C7.39286 23.505 7.30631 23.7196 7.15227 23.8779C6.99822 24.0361 6.78929 24.125 6.57143 24.125C6.35357 24.125 6.14464 24.0361 5.99059 23.8779C5.83654 23.7196 5.75 23.505 5.75 23.2813V11.4688ZM22.1786 2.18751H16.0179L15.5353 1.20138C15.433 0.990552 15.2756 0.813211 15.0806 0.689304C14.8856 0.565397 14.6608 0.49984 14.4315 0.500009H8.56339C8.33461 0.499106 8.11022 0.564418 7.9159 0.688463C7.72159 0.812507 7.56523 0.990267 7.46473 1.20138L6.98214 2.18751H0.821429C0.603572 2.18751 0.394639 2.2764 0.240591 2.43464C0.0865431 2.59287 0 2.80748 0 3.03126L0 4.71876C0 4.94254 0.0865431 5.15715 0.240591 5.31538C0.394639 5.47361 0.603572 5.56251 0.821429 5.56251H22.1786C22.3964 5.56251 22.6054 5.47361 22.7594 5.31538C22.9135 5.15715 23 4.94254 23 4.71876V3.03126C23 2.80748 22.9135 2.59287 22.7594 2.43464C22.6054 2.2764 22.3964 2.18751 22.1786 2.18751Z" fill="#4F6259"/>
</g>
</svg>
