<svg width="34" height="34" viewBox="0 0 34 34" fill="none" xmlns="http://www.w3.org/2000/svg">
<rect width="34" height="34" rx="17" fill="#D6DCD9"/>
<path d="M16 18H11C10.7167 18 10.4793 17.904 10.288 17.712C10.0967 17.52 10.0007 17.2827 10 17C9.99934 16.7173 10.0953 16.48 10.288 16.288C10.4807 16.096 10.718 16 11 16H16V11C16 10.7167 16.096 10.4793 16.288 10.288C16.48 10.0967 16.7173 10.0007 17 10C17.2827 9.99934 17.5203 10.0953 17.713 10.288C17.9057 10.4807 18.0013 10.718 18 11V16H23C23.2833 16 23.521 16.096 23.713 16.288C23.905 16.48 24.0007 16.7173 24 17C23.9993 17.2827 23.9033 17.5203 23.712 17.713C23.5207 17.9057 23.2833 18.0013 23 18H18V23C18 23.2833 17.904 23.521 17.712 23.713C17.52 23.905 17.2827 24.0007 17 24C16.7173 23.9993 16.48 23.9033 16.288 23.712C16.096 23.5207 16 23.2833 16 23V18Z" fill="#4F6259"/>
</svg>
