<svg width="12" height="9" viewBox="0 0 12 9" fill="none" xmlns="http://www.w3.org/2000/svg">
<path id="Vector" d="M0.900485 0.257633H11.1004C11.2037 0.257957 11.3049 0.286439 11.3932 0.340014C11.4815 0.393588 11.5535 0.470225 11.6015 0.561678C11.6494 0.653131 11.6716 0.755935 11.6655 0.859024C11.6593 0.962113 11.6252 1.06158 11.5668 1.14673L6.46682 8.51336C6.25546 8.81879 5.74659 8.81879 5.53466 8.51336L0.434687 1.14673C0.375655 1.06176 0.341037 0.96224 0.334595 0.85898C0.328152 0.755719 0.350132 0.652667 0.398145 0.561021C0.446159 0.469375 0.51837 0.392639 0.606933 0.339151C0.695496 0.285664 0.797024 0.25747 0.900485 0.257633Z" fill="#4F6259"/>
</svg>
